# xmcd
# 
# Track frame offsets:
#     182
#     23955
#     45602
#     68860
#     91025
#     112482
#     131452
#     153040
#     172427
#     196212
#     219707
# 
# Disc length: 3130
# 
# Revision: 0
# Processed by: cddbd v1.5.2PL0 Copyright (c) Steve Scherf et al.
# Submitted via: fre:ac v1.0.17
# 
DISCID=9d0c380b
DTITLE=Christopher Williams - Not A Perfect Man
DYEAR=1994
DGENRE=R&B
TTITLE0=If You Say
TTITLE1=Learning To Love Again
TTITLE2=Dance 4 Me
TTITLE3=R U Ready
TTITLE4=Oh Girl
TTITLE5=Lonely
TTITLE6=Solidarity (featuring Papa San)
TTITLE7=Never Stop
TTITLE8=Not A Perfect Man
TTITLE9=Down On My Knees
TTITLE10=We Don't Know How To Say Goodbye
EXTD=
EXTT0=
EXTT1=
EXTT2=
EXTT3=
EXTT4=
EXTT5=
EXTT6=
EXTT7=
EXTT8=
EXTT9=
EXTT10=
PLAYORDER=
